<?xml version="1.0" ?><svg width="512px" height="512px" viewBox="0 0 512 512" style="enable-background:new 0 0 512 512;" version="1.1" xml:space="preserve" xmlns="http://www.w3.org/2000/svg" xmlns:xlink="http://www.w3.org/1999/xlink"><style type="text/css">
	.st0{fill:#333333;}
	.st1{fill:none;stroke:#333333;stroke-width:32;stroke-linecap:round;stroke-linejoin:round;stroke-miterlimit:10;}
</style><g id="Layer_1"/><g id="Layer_2"><g><path class="st0" d="M404.75,156.76H281.36l31.63-31.63c5.5,2.57,11.62,4.02,18.08,4.02c23.61,0,42.83-19.21,42.83-42.83    c0-23.61-19.21-42.83-42.83-42.83c-23.61,0-42.83,19.21-42.83,42.83c0,5.7,1.13,11.14,3.16,16.13L256,137.86l-35.41-35.41    c2.03-4.98,3.16-10.42,3.16-16.13c0-23.61-19.21-42.83-42.83-42.83S138.1,62.71,138.1,86.33c0,23.61,19.21,42.83,42.83,42.83    c6.46,0,12.59-1.45,18.08-4.02l31.63,31.63H107.25c-24.44,0-44.25,19.81-44.25,44.25v223.23c0,24.44,19.81,44.25,44.25,44.25    h297.51c24.44,0,44.25-19.81,44.25-44.25V201.02C449.01,176.58,429.19,156.76,404.75,156.76z M331.08,74.8    c6.36,0,11.53,5.17,11.53,11.53c0,6.36-5.17,11.53-11.53,11.53c-6.36,0-11.53-5.17-11.53-11.53    C319.55,79.97,324.72,74.8,331.08,74.8z M180.92,97.85c-6.36,0-11.53-5.17-11.53-11.53c0-6.36,5.17-11.53,11.53-11.53    s11.53,5.17,11.53,11.53C192.45,92.68,187.28,97.85,180.92,97.85z M314.02,396.45c0,10.68-8.66,19.33-19.33,19.33H135.67    c-10.68,0-19.33-8.66-19.33-19.33V228.81c0-10.68,8.66-19.33,19.33-19.33h159.02c10.68,0,19.33,8.66,19.33,19.33V396.45z     M381.99,391.39c-15.33,0-27.76-12.43-27.76-27.76s12.43-27.76,27.76-27.76s27.76,12.43,27.76,27.76S397.33,391.39,381.99,391.39z     M381.99,289.4c-15.33,0-27.76-12.43-27.76-27.76c0-15.33,12.43-27.76,27.76-27.76s27.76,12.43,27.76,27.76    C409.76,276.97,397.33,289.4,381.99,289.4z"/></g></g></svg>